<svg width="340" height="96" viewBox="0 0 340 96" fill="none" xmlns="http://www.w3.org/2000/svg">
<path d="M52.9612 52.9463V51.279H78.2821V55.162H52.9612" fill="#F9D200"/>
<path d="M27.5143 52.9463V51.279H52.9612V55.162H27.5143" fill="#E30613"/>
<mask id="mask0_497_10170" style="mask-type:luminance" maskUnits="userSpaceOnUse" x="0" y="0" width="340" height="96">
<path d="M339.242 0H0V96H339.242V0Z" fill="white"/>
</mask>
<g mask="url(#mask0_497_10170)">
<path d="M12.4418 58.9561H33.6352L28.4851 95.1256H0.0370483M26.262 92.569L30.6859 61.5052H14.2648L3.6088 92.5764H26.262V92.569ZM68.3226 58.9561H47.1293L52.2794 95.1256H80.72L68.3152 58.9561H68.3226ZM54.4951 92.569L50.0712 61.5052H66.4923L77.1483 92.5764H54.5025L54.4951 92.569ZM41.6235 20.2448L45.499 47.5887H64.41L48.1 0.0148163H32.657L16.3396 47.5887H35.2506L39.1262 20.2448H41.6161H41.6235ZM36.9105 17.6883L33.035 45.0174H19.9262L34.4874 2.57136H46.2771L60.8309 45.0174H47.7221L43.8465 17.6883H36.9179H36.9105ZM104.514 3.66067H117.305C123.159 3.66067 127.938 5.46136 131.658 9.06275C135.378 12.6641 137.238 17.2215 137.238 22.7199C137.238 28.7296 135.437 33.5759 131.829 37.281C128.227 40.9862 123.381 42.8313 117.305 42.8313H104.514V3.66067ZM112.014 36.7327H117.186C121.299 36.7327 124.411 35.4655 126.545 32.9238C128.679 30.3821 129.746 26.9882 129.746 22.7199C129.746 18.9629 128.613 15.8728 126.345 13.4496C124.077 11.0265 120.987 9.8186 117.075 9.8186H112.014V36.7253V36.7327ZM140.202 4.52767C140.202 3.36426 140.61 2.37869 141.418 1.56356C142.233 0.748433 143.218 0.340868 144.382 0.340868C145.545 0.340868 146.538 0.748433 147.346 1.56356C148.161 2.37869 148.568 3.36426 148.568 4.52767C148.568 5.69108 148.161 6.73593 147.346 7.55106C146.538 8.36619 145.545 8.77375 144.382 8.77375C143.218 8.77375 142.233 8.36619 141.418 7.55106C140.61 6.73593 140.202 5.72813 140.202 4.52767ZM140.899 13.3607H147.872V42.8313H140.899V13.3681V13.3607ZM175.705 35.1543V41.2011C173.652 42.483 170.688 43.1203 166.812 43.1203C162.114 43.1203 158.417 41.7272 155.712 38.9335C152.992 36.1399 151.644 32.5385 151.644 28.122C151.644 23.4313 152.918 19.7558 155.475 17.0807C158.031 14.4056 161.233 13.0717 165.071 13.0717C168.91 13.0717 171.948 14.2351 174.201 16.5619C176.446 18.8888 177.572 22.2753 177.572 26.7362C177.572 27.8181 177.439 29.2187 177.165 30.923H158.676C159.18 33.0572 160.232 34.68 161.84 35.8064C163.456 36.9328 165.464 37.4959 167.857 37.4959C170.955 37.4959 173.578 36.7179 175.705 35.1691M170.94 25.6988V24.8244C170.858 22.9274 170.347 21.4083 169.399 20.2671C168.45 19.1259 167.064 18.5553 165.242 18.5553C163.574 18.5553 162.129 19.1629 160.907 20.3856C159.684 21.6083 158.906 23.3794 158.55 25.7062H170.94V25.6988ZM130.65 95.1404L127.857 86.2481H113.036L110.243 95.1404H102.573L115.822 55.9623H125.293L138.542 95.1404H130.643H130.65ZM114.955 80.2606H125.997L125.471 78.5192C124.159 74.3324 123.077 70.8199 122.247 67.9744C121.417 65.1288 120.898 63.3355 120.706 62.5945L120.469 61.4311C120.12 63.3726 118.453 69.0859 115.474 78.5785L114.948 80.268L114.955 80.2606ZM158.958 65.6698H165.997V95.1404H158.958V90.3163C157.409 93.725 154.393 95.4294 149.895 95.4294C146.916 95.4294 144.589 94.5772 142.922 92.8729C141.254 91.1685 140.417 88.7453 140.417 85.6108V65.6772H147.39V83.9879C147.39 85.8479 147.842 87.2633 148.761 88.234C149.665 89.1974 150.917 89.6864 152.503 89.6864C154.519 89.6864 156.097 89.0047 157.238 87.6486C158.38 86.2925 158.95 84.2399 158.95 81.4907V65.6846L158.958 65.6698ZM180.107 70.9014V85.8924C180.107 87.1373 180.44 88.071 181.092 88.7083C181.752 89.3456 182.663 89.6716 183.819 89.6716C185.294 89.6716 186.65 89.2641 187.887 88.4489V94.4364C186.524 95.0959 184.782 95.422 182.656 95.422C176.298 95.422 173.119 92.2059 173.119 85.7738V70.894H168.702V65.6624H173.119V58.5707H180.099V65.6624H187.42V70.894H180.099L180.107 70.9014ZM204.264 95.5998C199.803 95.5998 196.335 94.2067 193.83 91.413C191.326 88.6268 190.081 85.0624 190.081 80.72C190.081 76.3776 191.378 72.5169 193.971 69.5898C196.572 66.6628 199.996 65.2029 204.264 65.2029C208.799 65.2029 212.304 66.6257 214.787 69.4787C217.269 72.3242 218.514 75.9404 218.514 80.3199C218.514 84.6993 217.262 88.4341 214.757 91.3019C212.26 94.1697 208.762 95.6072 204.264 95.6072M204.264 70.9088C202.056 70.9088 200.359 71.8203 199.181 73.6432C198.002 75.4661 197.409 77.7485 197.409 80.4977C197.409 83.2469 198.01 85.4774 199.21 87.3003C200.411 89.1233 202.122 90.0347 204.331 90.0347C206.539 90.0347 208.34 89.1455 209.503 87.3596C210.666 85.5812 211.252 83.3136 211.252 80.557C211.252 77.8004 210.689 75.4143 209.562 73.6136C208.436 71.8129 206.672 70.9162 204.271 70.9162M229.652 54.0579V70.1604C231.704 66.9073 234.646 65.277 238.485 65.277C242.323 65.277 245.198 66.6405 247.577 69.3749C249.963 72.1093 251.156 75.7996 251.156 80.4458C251.156 84.6326 250.022 88.197 247.755 91.1389C245.487 94.0807 242.419 95.5554 238.544 95.5554C234.668 95.5554 231.704 93.9103 229.652 90.6127V95.1478H222.619V54.0505H229.652V54.0579ZM236.98 89.5753C238.996 89.5753 240.678 88.7453 242.034 87.078C243.39 85.4107 244.072 83.2395 244.072 80.5644C244.072 77.6225 243.383 75.3253 242.004 73.6803C240.626 72.0352 238.937 71.2052 236.921 71.2052C235.017 71.2052 233.334 71.9537 231.867 73.4431C230.393 74.9326 229.659 77.1705 229.659 80.1568C229.659 83.1432 230.356 85.5515 231.756 87.1595C233.149 88.7676 234.891 89.5679 236.988 89.5679M255.965 73.6432V67.1889C258.174 65.8328 261.353 65.1511 265.495 65.1511C273.483 65.1511 277.47 68.871 277.47 76.3109V95.1404H270.549V91.5983C269.193 94.1178 266.644 95.3775 262.879 95.3775C260.086 95.3775 257.87 94.5624 256.225 92.9321C254.572 91.3019 253.75 89.2566 253.75 86.7742C253.75 83.9805 254.795 81.7945 256.892 80.2087C258.981 78.6155 262.005 77.83 265.954 77.83H270.26V76.0293C270.26 74.3991 269.83 73.1616 268.978 72.3094C268.126 71.4572 266.673 71.0274 264.613 71.0274C261.479 71.0274 258.596 71.9018 255.958 73.6432M270.26 82.4763H266.658C264.836 82.4763 263.442 82.8542 262.479 83.61C261.508 84.3659 261.027 85.3218 261.027 86.4926C261.027 88.9677 262.457 90.2126 265.325 90.2126C266.873 90.2126 268.089 89.7531 268.956 88.8417C269.83 87.9302 270.267 86.7446 270.267 85.2699V82.4763H270.26ZM289.712 54.0505V70.6791C291.298 67.1148 294.299 65.3289 298.723 65.3289C301.583 65.3289 303.902 66.233 305.673 68.0336C307.437 69.8343 308.319 72.4428 308.319 75.8515V95.1478H301.346V77.0742C301.346 75.2142 300.872 73.7618 299.923 72.7095C298.975 71.6647 297.745 71.1385 296.233 71.1385C294.565 71.1385 293.061 71.7832 291.727 73.0578C290.393 74.3324 289.719 76.4295 289.719 79.3343V95.1404H282.746V54.0431H289.719L289.712 54.0505ZM320.613 65.6772V70.731C322.272 67.1296 325.303 65.3289 329.683 65.3289C332.625 65.3289 334.951 66.2255 336.656 68.004C338.36 69.7899 339.212 72.302 339.212 75.5625V95.1478H332.239V77.0149C332.239 75.0808 331.772 73.6136 330.839 72.628C329.912 71.6424 328.653 71.146 327.067 71.146C325.244 71.146 323.71 71.8573 322.473 73.2727C321.235 74.6881 320.613 76.7111 320.613 79.3491V95.1552H313.639V65.6846H320.613V65.6772ZM2.31941 55.162H27.6403V51.2864H2.31941V55.162Z" fill="black"/>
</g>
</svg>
